<svg viewBox="0 0 1024 1024" xmlns="http://www.w3.org/2000/svg" width="128" height="128" fill="#167DF0"><path d="M458.35 414.18l-74.2 201.18h150.27l-73.55-201.18h-2.52zm0 0"/><path d="M745.37 200.33H173.82c-43.05 0-77.94 34.86-77.94 77.86v570.94c0 43 34.89 77.86 77.94 77.86h571.55c43.04 0 77.94-34.86 77.94-77.86V278.19c0-43-34.9-77.86-77.94-77.86zM596.74 786.02l-41.75-114.6H363.6l-41.77 114.6h-72.35l171.47-444.71h77.34l171.46 444.71h-73.01zm0 0M896 162.15H256c-17.6 0-32-14.4-32-32s14.4-32 32-32h640c17.6 0 32 14.4 32 32s-14.4 32-32 32z"/><path d="M864 770.15v-640c0-17.6 14.4-32 32-32s32 14.4 32 32v640c0 17.6-14.4 32-32 32s-32-14.4-32-32z"/></svg>